<?xml version="1.0" encoding="UTF-8" standalone="no"?>
<svg width="980px" height="400px" viewBox="0 0 980 400" version="1.1" xmlns="http://www.w3.org/2000/svg" xmlns:xlink="http://www.w3.org/1999/xlink">
    <!-- Generator: Sketch 39.1 (31720) - http://www.bohemiancoding.com/sketch -->
    <title>Slice 1</title>
    <desc>Created with Sketch.</desc>
    <defs></defs>
    <g id="Page-1" stroke="none" stroke-width="1" fill="none" fill-rule="evenodd">
        <g id="github-banner" transform="translate(-16.000000, -21.000000)">
            <g id="Oval-1-+-noun_6571_cc" transform="translate(378.000000, 93.000000)">
                <g id="noun_6571_cc" transform="translate(70.500000, 48.000000)">
                    <rect id="Rectangle-path" fill="#2B303A" x="10.0269555" y="0.130522862" width="104.75649" height="156.892128"></rect>
                    <rect id="Rectangle-path" fill="#2B303A" x="0.2165546" y="0.130522862" width="7.35834362" height="156.892128"></rect>
                    <polygon id="Shape" fill="#BF616A" points="22.6390869 159.481332 15.2829152 159.481332 15.2829152 185.554229 18.9599151 180.147307 22.6390869 185.554229"></polygon>
                    <g id="markdown-mark" transform="translate(27.890873, 17.648831)" fill="#EBCB8B">
                        <path d="M10.1820186,32.6117487 L10.1820186,10.2289647 L16.7276335,10.2289647 L23.2732484,18.4579294 L29.8188632,10.2289647 L36.3644781,10.2289647 L36.3644781,32.6117487 L29.8188632,32.6117487 L29.8188632,19.7745638 L23.2732484,28.0035285 L16.7276335,19.7745638 L16.7276335,32.6117487 L10.1820186,32.6117487 Z M51.0921116,32.6117487 L41.2736893,21.7495153 L47.8193042,21.7495153 L47.8193042,10.2289647 L54.364919,10.2289647 L54.364919,21.7495153 L60.9105339,21.7495153 L51.0921116,32.6117487 Z" id="Shape"></path>
                        <path d="M66.8015873,3.25 L65.5515873,2 L65.5515873,40.8407134 L66.8015873,39.5907134 L2,39.5907134 L3.25,40.8407134 L3.25,2 L2,3.25 L66.8015873,3.25 Z M0.75,0.75 L0.75,2 L0.75,40.8407134 L0.75,42.0907134 L2,42.0907134 L66.8015873,42.0907134 L68.0515873,42.0907134 L68.0515873,40.8407134 L68.0515873,2 L68.0515873,0.75 L66.8015873,0.75 L2,0.75 L0.75,0.75 Z" id="Rectangle-path"></path>
                    </g>
                </g>
            </g>
            <polygon id="Polygon" stroke="#2B303A" points="506.299363 74 633.598726 147.496321 633.598726 294.488964 506.299363 367.985286 379 294.488964 379 147.496321"></polygon>
        </g>
    </g>
</svg>